<svg xmlns="http://www.w3.org/2000/svg" xml:space="preserve" enable-background="new 0 0 2500 2500" viewBox="0 0 2500 2500" id="Waiting">
  <path fill="#ef6351" d="M1744.59,813.59c0,0,93.04,111.53,168.77,94.7c75.73-16.83,83.23-171.11,83.23-171.11l131.02,87.57
			c0,0-66.02,211.99-196.77,239.49c-131.02,27.55-291.92-155.95-291.92-155.95L1744.59,813.59z" class="colorec4e84 svgShape"></path>
  <rect width="14.06" height="1451.2" x="1416.61" y="704.25" fill="#1e1e1e" class="color000000 svgShape"></rect>
  <rect width="14.06" height="1451.2" x="409.96" y="704.25" fill="#1e1e1e" class="color000000 svgShape"></rect>
  <path fill="#fe1d00" d="M1277.37 2133.53H529.87c25.24-92.55 363.21-256.65 363.21-256.65 68.72 99.59 206.15 70.12 288.9 103.79C1264.73 2014.31 1277.37 2133.53 1277.37 2133.53zM1258.3 987.9c0 0-56.57-22.63-135.18 16.67-78.61 39.3-112.61 88.49-222.18 88.49S634.81 960.51 543.11 971.23c0 0 21.44 116.72 106 163.17 80.43 44.18 236.3 147.63 234.92 319.57-.12 14.87 11.87 27.01 26.75 27.01h0c12.95 0 23.99-9.27 26.35-22.01 8.37-45.35 35.33-149.84 112.16-208.15C1149.33 1174.89 1267.23 1065.32 1258.3 987.9z" class="colorfea300 svgShape"></path>
  <circle cx="929.53" cy="1535.81" r="18.97" fill="#fe1d00" class="colorfea300 svgShape"></circle>
  <circle cx="859.24" cy="1561.25" r="12.5" fill="#fe1d00" class="colorfea300 svgShape"></circle>
  <circle cx="932.07" cy="1604.8" r="16.39" fill="#fe1d00" class="colorfea300 svgShape"></circle>
  <circle cx="844.15" cy="1680.69" r="24.15" fill="#fe1d00" class="colorfea300 svgShape"></circle>
  <circle cx="953.67" cy="1726.4" r="11.21" fill="#fe1d00" class="colorfea300 svgShape"></circle>
  <circle cx="897.58" cy="1775.54" r="18.1" fill="#fe1d00" class="colorfea300 svgShape"></circle>
  <path fill="#fe1d00" d="M1011.75,1871.84c-6.72,6.72-17.6,6.72-24.29,0c-6.72-6.69-6.72-17.56,0-24.29
					c6.69-6.69,17.56-6.69,24.29,0C1018.44,1854.27,1018.44,1865.15,1011.75,1871.84z" class="colorfea300 svgShape"></path>
  <path fill="#72d1f4" d="M346.53,609.67h1139.29c27.69,0,45.72,30.67,32.73,56.11c-4.57,8.95-10.2,17.15-16.71,24.38
						c-18.54,20.6-44.12,33.34-72.42,33.34H402.95c-38.22,0-71.54-23.25-89.15-57.71C300.81,640.35,318.83,609.67,346.53,609.67z" class="color727ef4 svgShape"></path>
  <path fill="#087ca7" d="M1518.56,665.78c-4.57,8.95-10.2,17.16-16.73,24.39c-18.54,20.6-44.13,33.34-72.4,33.34H402.97
						c-35.56,0-66.84-20.06-85.21-50.6c14.04,8.07,30.01,12.63,46.88,12.63h1026.46c28.31,0,53.89-12.73,72.43-33.34
						c6.5-7.23,12.12-15.4,16.69-24.35c3.01-5.91,4.35-12.13,4.32-18.17h1.27C1513.51,609.68,1531.55,640.35,1518.56,665.78z" class="color4a61d8 svgShape"></path>
  <path d="M1429.42,726.14H402.95c-37.8,0-72.85-22.66-91.49-59.15c-6.67-13.05-6.06-28.32,1.61-40.86
						c7.32-11.96,19.83-19.1,33.46-19.1h1139.29c13.63,0,26.14,7.14,33.46,19.09c7.67,12.53,8.28,27.81,1.62,40.85
						c-4.66,9.12-10.41,17.51-17.1,24.95C1483.95,713.99,1457.54,726.14,1429.42,726.14z M346.53,612.31
						c-11.79,0-22.61,6.2-28.97,16.58c-6.71,10.96-7.24,24.31-1.41,35.7c17.73,34.71,50.99,56.28,86.8,56.28h1026.47
						c26.6,0,51.62-11.53,70.46-32.46c6.38-7.09,11.87-15.11,16.32-23.82c5.82-11.4,5.29-24.75-1.42-35.7
						c-6.35-10.38-17.18-16.57-28.96-16.57H346.53z" fill="#1e1e1e" class="color000000 svgShape"></path>
  <path fill="#72d1f4" d="M1485.83,2247.36H346.54c-27.69,0-45.72-30.67-32.73-56.11c4.57-8.95,10.2-17.15,16.71-24.38
						c18.54-20.6,44.12-33.34,72.42-33.34H1429.4c38.22,0,71.54,23.25,89.15,57.71C1531.55,2216.68,1513.53,2247.36,1485.83,2247.36
						z" class="color727ef4 svgShape"></path>
  <path fill="#087ca7" d="M1485.82,2247.37H346.54c-20.03,0-34.98-16.01-36.87-34.49h1124.7c27.72,0,45.72-30.7,32.73-56.14
						c-3.63-7.13-7.95-13.78-12.85-19.83c27.51,7.6,50.66,27.6,64.3,54.31C1531.55,2216.67,1513.51,2247.37,1485.82,2247.37z" class="color4a61d8 svgShape"></path>
  <path d="M1485.83,2250H346.54c-13.63,0-26.14-7.14-33.46-19.09c-7.67-12.53-8.28-27.81-1.62-40.85
						c4.66-9.12,10.41-17.51,17.1-24.95c19.85-22.06,46.26-34.21,74.38-34.21H1429.4c37.8,0,72.85,22.66,91.49,59.15
						c6.67,13.05,6.06,28.32-1.61,40.86C1511.97,2242.86,1499.46,2250,1485.83,2250z M402.93,2136.17
						c-26.6,0-51.62,11.53-70.46,32.46c-6.38,7.09-11.87,15.11-16.32,23.82c-5.82,11.4-5.29,24.75,1.42,35.7
						c6.35,10.38,17.18,16.57,28.96,16.57h1139.29c11.78,0,22.61-6.2,28.97-16.58c6.71-10.96,7.24-24.31,1.41-35.71
						c-17.73-34.71-50.99-56.28-86.8-56.28H402.93z" fill="#1e1e1e" class="color000000 svgShape"></path>
  <path fill="#ffffff" d="M1342.16,1980.01c0,53.91-8.97,105.59-25.43,153.52H514.64c-16.46-47.93-25.43-99.6-25.43-153.52
						c0-188.78,110.01-350.42,266.04-417.34c52.41-22.48,86.74-75.31,86.74-134.14v0c0-58.82-34.32-111.66-86.73-134.13
						c-156.03-66.93-266.05-228.59-266.05-417.34c0-53.95,8.97-105.62,25.43-153.55h802.09c16.46,47.93,25.43,99.6,25.43,153.55
						c0,188.75-110.01,350.42-266.05,417.34c-52.41,22.48-86.73,75.31-86.73,134.13v0c0,58.83,34.33,111.66,86.74,134.14
						C1232.15,1629.59,1342.16,1791.24,1342.16,1980.01z" opacity=".3" class="colorffffff svgShape"></path>
  <path d="M1318.61,2136.16H512.75l-0.61-1.78c-16.97-49.41-25.57-101.35-25.57-154.37c0-185.27,105.05-350.04,267.64-419.76
						c51.72-22.18,85.14-73.88,85.14-131.71c0-57.83-33.42-109.53-85.14-131.71c-78.17-33.53-144.81-90.23-192.7-163.97
						c-49.02-75.48-74.94-163.93-74.94-255.79c0-53.05,8.6-105,25.57-154.41l0.61-1.78h805.85l0.61,1.78
						c16.97,49.42,25.58,101.37,25.58,154.41c0,91.86-25.91,180.31-74.94,255.79c-47.89,73.74-114.53,130.44-192.71,163.97
						c-51.72,22.18-85.13,73.88-85.13,131.71c0,57.83,33.42,109.53,85.14,131.72c162.58,69.73,267.64,234.5,267.64,419.76
						c0,53.02-8.6,104.95-25.58,154.37L1318.61,2136.16z M516.52,2130.89h798.32c16.38-48.33,24.68-99.09,24.68-150.88
						c0-183.16-103.8-346.02-264.44-414.92c-53.66-23.02-88.33-76.62-88.33-136.56c0-59.94,34.67-113.54,88.33-136.56
						c160.65-68.9,264.45-231.77,264.45-414.92c0-51.82-8.3-102.58-24.68-150.92H516.52c-16.38,48.32-24.68,99.09-24.68,150.92
						c0,183.15,103.8,346.01,264.45,414.92c53.66,23.02,88.33,76.62,88.33,136.56c0,59.94-34.67,113.55-88.33,136.56
						c-160.64,68.89-264.44,231.76-264.44,414.92C491.84,2031.82,500.14,2082.57,516.52,2130.89z" fill="#1e1e1e" class="color000000 svgShape"></path>
  <g fill="#1e1e1e" class="color000000 svgShape">
    <path fill="#ef6351" d="M1799.64,957.35c0.03,115.04-93.19,208.3-208.24,208.34c-63.7,0-120.72-28.58-158.96-73.57
				c-6.96-8.24-13.31-17.02-18.98-26.28c-13.27-21.75-22.7-46.17-27.26-72.25c-2.06-11.75-3.14-23.85-3.14-36.18
				c0-10.3,0.78-20.44,2.23-30.37c11.59-79.48,68.1-144.36,142.88-168.14c19.89-6.35,41.14-9.76,63.16-9.76
				c21.41,0,42.05,3.21,61.51,9.22C1737.86,784.58,1799.64,863.75,1799.64,957.35z" class="colorec4e84 svgShape"></path>
    <path d="M1774.55,1062.03l-4.57-2.62c17.7-30.92,27.05-66.21,27.04-102.06c0-23.81-4.04-47.15-12-69.36l4.96-1.78
				c8.17,22.78,12.31,46.72,12.31,71.14C1802.29,994.11,1792.7,1030.31,1774.55,1062.03z" fill="#1e1e1e" class="color000000 svgShape"></path>
    <path fill="#db5240" d="m1655.99 996.53-122.34 92.55-101.2 3.04c-6.96-8.24-13.31-17.02-18.98-26.28-13.27-21.75-22.7-46.17-27.26-72.25 1.86-3.11 2.97-4.97 2.97-4.97l112.17-86.5c-2.43 2.8-89.44 104-68.2 122.71C1454.74 1043.82 1655.99 996.53 1655.99 996.53zM1615.7 806.73c-39.5 7.82-73.89-30.96-87.53-47.81 19.92-6.36 41.14-9.77 63.17-9.78 21.41 0 42.06 3.21 61.53 9.22C1652.86 758.36 1665.15 796.95 1615.7 806.73z" class="colordb407c svgShape"></path>
    <circle cx="1644.7" cy="501.04" r="60.06" fill="#1e1e1e" class="color000000 svgShape"></circle>
    <path fill="#ffffff" d="M1680.23,555.5c17.21,75.85-17.81,155.45-89.12,171.64s-151.89-37.18-169.1-113.03
					s26.63-150.46,97.94-166.65C1591.26,431.27,1663.02,479.65,1680.23,555.5z" class="colorffffff svgShape"></path>
    <path d="M1565.06,732.65c-65,0-130.32-50.52-145.62-117.97c-8.47-37.34-2.77-75.56,16.07-107.62
					c18.87-32.11,48.65-54.19,83.85-62.18c35.2-7.99,71.6-0.92,102.48,19.89c30.83,20.78,52.48,52.8,60.95,90.14
					c8.68,38.24,4.57,77.28-11.57,109.95c-16.79,33.99-45.04,57.02-79.53,64.85C1582.92,731.7,1573.99,732.65,1565.06,732.65z
					 M1547.83,446.95c-9.1,0-18.24,1.02-27.3,3.07c-33.77,7.66-62.35,28.87-80.48,59.71c-18.16,30.89-23.65,67.75-15.48,103.78
					c16.8,74.02,95.88,126.95,165.95,111.05c66.86-15.17,105.13-89.18,87.13-168.48c-8.18-36.03-29.05-66.9-58.76-86.93
					C1597.2,454.52,1572.66,446.95,1547.83,446.95z" fill="#1e1e1e" class="color000000 svgShape"></path>
    <path fill="#ffffff" d="M1384.16,652.72c4,22.44,25.5,37.43,47.94,33.43c22.44-4,37.43-25.5,33.42-47.94
					c-0.84-4.74-2.48-9.09-4.71-13.03c-8.33-14.83-25.46-23.5-43.22-20.33c-15.99,2.85-28.2,14.56-32.39,29.12
					C1383.45,639.83,1383.01,646.27,1384.16,652.72z" class="colorffffff svgShape"></path>
    <path d="M1424.77,689.44c-8.91,0-17.59-2.71-25.06-7.92c-9.64-6.72-16.08-16.78-18.14-28.33c-1.19-6.66-0.8-13.57,1.12-19.98
					c4.57-15.88,18.09-28.04,34.44-30.95c18.4-3.28,36.87,5.41,45.98,21.64c0.71,1.27,0.26,2.88-1.01,3.59
					c-1.27,0.71-2.87,0.26-3.59-1.01c-8.02-14.27-24.27-21.92-40.46-19.03c-14.39,2.57-26.29,13.26-30.31,27.25
					c-1.7,5.65-2.03,11.72-0.99,17.57c1.81,10.16,7.48,19.02,15.97,24.93c8.49,5.92,18.76,8.18,28.91,6.36
					c8.79-1.57,16.83-6.18,22.62-12.97c0.95-1.1,2.61-1.24,3.72-0.3c1.11,0.95,1.24,2.61,0.3,3.72
					c-6.59,7.72-15.71,12.96-25.7,14.74C1429.96,689.21,1427.35,689.44,1424.77,689.44z" fill="#1e1e1e" class="color000000 svgShape"></path>
    <path d="M1423.18,605.19c0,0,24.96,3.27,40.33,22.37c0,0,80.05-24.15,83.7-94.2c3.66-70.05-66.41-125.76-126.47-98.59
					c-60.07,27.17-20.79,88.06-20.79,88.06s-36.64,9.23-32.85,48.94c3.79,39.71,30.14,49.16,30.14,49.16
					C1403.35,612.17,1411.71,606.52,1423.18,605.19z" fill="#1e1e1e" class="color000000 svgShape"></path>
    <circle cx="1579.97" cy="436.61" r="102.11" fill="#1e1e1e" class="color000000 svgShape"></circle>
    <ellipse cx="1642.26" cy="579.49" rx="9.54" ry="11.94" transform="rotate(-2.431 1643.367 580.25)" fill="#1e1e1e" class="color000000 svgShape"></ellipse>
    <path d="M1630.29,562.54c-0.48,0-0.97-0.13-1.41-0.41c-1.23-0.78-1.6-2.41-0.82-3.64c2.73-4.33,7.14-7.34,12.41-8.47
					c4.99-1.07,10.11-0.29,13.7,2.08c1.21,0.8,1.55,2.44,0.74,3.65s-2.44,1.55-3.65,0.74c-2.4-1.58-6.11-2.09-9.68-1.32
					c-3.87,0.83-7.08,3.01-9.06,6.13C1632.02,562.1,1631.17,562.54,1630.29,562.54z" fill="#1e1e1e" class="color000000 svgShape"></path>
    <ellipse cx="1580.73" cy="594.87" rx="9.54" ry="11.94" transform="rotate(-2.431 1581.783 595.628)" fill="#1e1e1e" class="color000000 svgShape"></ellipse>
    <path d="M1568.76 577.92c-.48 0-.97-.13-1.41-.41-1.23-.78-1.6-2.41-.82-3.64 2.73-4.33 7.14-7.34 12.4-8.47 4.99-1.08 10.11-.3 13.7 2.08 1.21.8 1.55 2.44.74 3.65s-2.44 1.55-3.65.74c-2.4-1.58-6.11-2.09-9.69-1.32-3.87.83-7.08 3.01-9.05 6.13C1570.49 577.48 1569.63 577.92 1568.76 577.92zM1597.87 655.74c-1.26 0-2.37-.9-2.59-2.18-.25-1.43.71-2.8 2.14-3.05 11.51-2.01 30.81-7.95 33.59-15.33.28-.75 1.14-3.01-1.77-6.64-8.84-11.03-15.53-32.64-19.59-48.83-.35-1.41.5-2.84 1.92-3.2 1.41-.35 2.84.5 3.2 1.92 3.93 15.68 10.34 36.53 18.59 46.82 3.96 4.94 3.59 9.15 2.59 11.8-4.76 12.59-34.27 18.08-37.62 18.66C1598.18 655.73 1598.02 655.74 1597.87 655.74z" fill="#1e1e1e" class="color000000 svgShape"></path>
    <g fill="#1e1e1e" class="color000000 svgShape">
      <path fill="#ffffff" d="M1638.14,1031.8c-0.27,0-0.54-0.04-0.81-0.13c-1.38-0.45-2.15-1.93-1.7-3.32
				c31.74-98.57-10.04-196.53-10.47-197.51c-0.58-1.33,0.03-2.89,1.36-3.47c1.33-0.58,2.89,0.03,3.47,1.36
				c0.43,1,43.02,100.71,10.66,201.23C1640.29,1031.09,1639.25,1031.8,1638.14,1031.8z" class="colorffffff svgShape"></path>
    </g>
    <g fill="#1e1e1e" class="color000000 svgShape">
      <circle cx="1659.75" cy="850.71" r="6.79" fill="#ffffff" class="colorffffff svgShape"></circle>
    </g>
    <g fill="#1e1e1e" class="color000000 svgShape">
      <circle cx="1667.52" cy="888.29" r="6.79" fill="#ffffff" class="colorffffff svgShape"></circle>
    </g>
    <g fill="#1e1e1e" class="color000000 svgShape">
      <path fill="#ffffff" d="M1682.06,925.86c0,3.77-3.03,6.8-6.76,6.8c-3.77,0-6.8-3.03-6.8-6.8c0-3.73,3.03-6.76,6.8-6.76
				C1679.03,919.1,1682.06,922.12,1682.06,925.86z" class="colorffffff svgShape"></path>
    </g>
    <g fill="#1e1e1e" class="color000000 svgShape">
      <path fill="#ffffff" d="M1681.1,966.18c0,3.77-3.03,6.8-6.76,6.8c-3.77,0-6.8-3.03-6.8-6.8c0-3.73,3.03-6.76,6.8-6.76
				C1678.07,959.43,1681.1,962.45,1681.1,966.18z" class="colorffffff svgShape"></path>
    </g>
    <g fill="#1e1e1e" class="color000000 svgShape">
      <path fill="#ffffff" d="M1675.29,1006.51c0,3.77-3.03,6.8-6.76,6.8c-3.77,0-6.8-3.03-6.8-6.8c0-3.73,3.03-6.76,6.8-6.76
				C1672.27,999.75,1675.29,1002.78,1675.29,1006.51z" class="colorffffff svgShape"></path>
    </g>
    <g fill="#1e1e1e" class="color000000 svgShape">
      <path d="M1584.63,678.14c-0.49,0-0.99-0.14-1.43-0.42c-0.22-0.14-22.27-14.11-43.82-2.03c-1.26,0.71-2.87,0.26-3.59-1.01
				c-0.71-1.27-0.26-2.88,1.01-3.59c24.38-13.67,48.27,1.55,49.27,2.21c1.22,0.79,1.56,2.42,0.77,3.64
				C1586.34,677.72,1585.49,678.14,1584.63,678.14z" fill="#1e1e1e" class="color000000 svgShape"></path>
    </g>
  </g>
  <g fill="#1e1e1e" class="color000000 svgShape">
    <path fill="#ef6351" d="M1739.98,1986.53l-45.12,124.75c-6.11,17.08,1.53,35.67,17.19,43.77c1.41,0.75,2.91,1.4,4.44,1.95
						l132.44,47.37c15.96,5.71,33.54-2.73,39.14-18.76c6.03-17.24,4.56-35.27-2.69-50.57c-5.1-10.87-13.12-20.33-23.46-27.16
						c-4.4-2.92-9.21-5.36-14.4-7.21l-45.85-16.4l6.57-26.67l12.56-42.17L1739.98,1986.53z" class="colorec4e84 svgShape"></path>
    <path fill="#db5240" d="m1705.7 2080.98-10.84 30.31c-6.11 17.08 1.53 35.67 17.19 43.77 8.26-4.66 14.95-12.21 18.38-21.81C1738.03 2111.97 1726.97 2088.58 1705.7 2080.98zM1756.25 2171.22l29.16 10.43 76.51-73.76c-4.4-2.92-9.21-5.36-14.4-7.21l-13.21-4.72L1756.25 2171.22z" class="colordb407c svgShape"></path>
    <polygon fill="#db5240" points="1727.45 2160.92 1714.74 2147.75 1808.24 2057.6 1801.66 2084.27 1815.43 2089.2 1737.37 2164.47" class="colordb407c svgShape"></polygon>
    <path d="M1889.46 2180.88c-.43 1.59-.85 3.18-1.4 4.76-5.61 16-23.18 24.45-39.14 18.74l-132.44-47.37c-18.61-6.65-28.28-27.11-21.63-45.71l.01-.02L1889.46 2180.88zM1727.09 2021.15l12.88-34.6 80.8 28.9-10.88 35.32C1776.9 2050.08 1749.34 2040.13 1727.09 2021.15zM1794.6 2094.82c3.66 3.87 9.7 4.09 13.61.45l6.89-6.46c3.9-3.65 4.07-9.75.46-13.64-1.83-1.93-4.26-2.96-6.74-3.07-2.47-.03-4.94.79-6.92 2.65l-6.89 6.46C1791.15 2084.86 1790.96 2090.92 1794.6 2094.82zM1819.32 2106.9c3.66 3.87 9.7 4.09 13.61.45l6.89-6.46c3.9-3.65 4.07-9.75.46-13.64-1.83-1.93-4.26-2.96-6.74-3.07-2.47-.03-4.94.79-6.92 2.65l-6.89 6.46C1815.86 2096.94 1815.67 2103 1819.32 2106.9zM1844.04 2118.97c3.66 3.87 9.71 4.09 13.61.45l6.89-6.46c3.9-3.65 4.07-9.75.46-13.64-1.83-1.93-4.26-2.96-6.74-3.07-2.47-.03-4.94.79-6.92 2.65l-6.89 6.46C1840.58 2109.01 1840.39 2115.07 1844.04 2118.97z" fill="#1e1e1e" class="color000000 svgShape"></path>
    <path fill="#ef6351" d="M1628.08,2087.14l34.8,128.02c4.82,17.49,21.76,28.3,39.22,25.93c1.58-0.2,3.18-0.53,4.75-0.96
						l135.6-37.38c16.34-4.5,25.87-21.52,21.24-37.85c-4.98-17.58-16.54-31.49-31.27-39.83c-10.42-5.96-22.42-9.09-34.81-8.74
						c-5.28,0.14-10.62,0.91-15.93,2.38l-46.95,12.94l-9.96-25.6l-13.97-41.72L1628.08,2087.14z" class="colorec4e84 svgShape"></path>
    <path fill="#db5240" d="m1654.33 2184.13 8.55 31.03c4.82 17.49 21.76 28.3 39.22 25.93 4.08-8.56 5.21-18.59 2.5-28.42C1698.61 2190.9 1676.11 2178.12 1654.33 2184.13zM1747.58 2228.91l29.86-8.23 20.19-104.34c-5.28.14-10.62.91-15.93 2.38l-13.52 3.73L1747.58 2228.91z" class="colordb407c svgShape"></path>
    <polygon fill="#db5240" points="1718.09 2237.03 1700.12 2233.56 1724.79 2106.05 1734.75 2131.65 1748.84 2127.77 1728.24 2234.24" class="colordb407c svgShape"></polygon>
    <path d="M1862.12 2160.22c.57 1.55 1.14 3.09 1.59 4.7 4.61 16.32-4.91 33.33-21.25 37.84l-135.6 37.38c-19.05 5.25-38.72-5.92-43.98-24.97l-.01-.02L1862.12 2160.22zM1637.44 2122.88l-9.36-35.71 82.73-22.81 11.4 35.15C1694.83 2117.91 1666.56 2125.62 1637.44 2122.88z" fill="#1e1e1e" class="color000000 svgShape"></path>
    <g fill="#1e1e1e" class="color000000 svgShape">
      <path d="M1735.04,2144.35c5.22,1.06,10.29-2.23,11.39-7.46l1.92-9.24c1.1-5.23-2.28-10.32-7.47-11.43
					c-2.61-0.53-5.18,0.03-7.28,1.36c-2.04,1.4-3.58,3.49-4.14,6.14l-1.92,9.24C1726.48,2138.18,1729.81,2143.25,1735.04,2144.35z" fill="#1e1e1e" class="color000000 svgShape"></path>
    </g>
    <g fill="#1e1e1e" class="color000000 svgShape">
      <path d="M1762.2,2140.01c5.22,1.06,10.29-2.23,11.39-7.46l1.92-9.24c1.1-5.23-2.28-10.32-7.47-11.43
					c-2.61-0.53-5.18,0.03-7.28,1.36c-2.04,1.4-3.58,3.49-4.14,6.14l-1.92,9.24C1753.65,2133.85,1756.98,2138.92,1762.2,2140.01z" fill="#1e1e1e" class="color000000 svgShape"></path>
    </g>
    <g fill="#1e1e1e" class="color000000 svgShape">
      <path d="M1789.37,2135.68c5.22,1.06,10.29-2.23,11.39-7.46l1.92-9.24c1.1-5.23-2.28-10.32-7.47-11.43
					c-2.61-0.53-5.18,0.03-7.28,1.36c-2.04,1.4-3.58,3.49-4.14,6.14l-1.92,9.24C1780.82,2129.52,1784.14,2134.59,1789.37,2135.68z" fill="#1e1e1e" class="color000000 svgShape"></path>
    </g>
    <g fill="#1e1e1e" class="color000000 svgShape">
      <path fill="#72d1f4" d="M1605.06,1196.65l55.16-10.34c59.82-11.21,121.08,10.29,160.72,56.47
				c79.29,92.37,184.45,247.16,190.69,294.63c10.44,79.5-143.62,490.82-154.06,498.65c-10.44,7.83-137.88-16.62-144.14-51.09
				s108.63-408.4,108.63-408.4l-236.58-288.8L1605.06,1196.65z" class="color727ef4 svgShape"></path>
    </g>
    <g fill="#1e1e1e" class="color000000 svgShape">
      <path d="M1907.05,1915.2c-23.56-4.29-105.31-20.86-168.22-53.83l2.45-4.67c62.25,32.62,143.34,49.05,166.71,53.31L1907.05,1915.2
				z" fill="#1e1e1e" class="color000000 svgShape"></path>
    </g>
    <g fill="#1e1e1e" class="color000000 svgShape">
      <path d="M1888.59,1964.61c-22.42-4-100.45-19.48-163.24-50.56l2.34-4.73c62.17,30.77,139.59,46.12,161.83,50.1L1888.59,1964.61z" fill="#1e1e1e" class="color000000 svgShape"></path>
    </g>
    <g fill="#1e1e1e" class="color000000 svgShape">
      <polyline fill="#087ca7" points="1622.82 1333.12 1643.45 1293.64 1735.74 1471.22" class="color4a61d8 svgShape"></polyline>
    </g>
    <g fill="#1e1e1e" class="color000000 svgShape">
      <path fill="#72d1f4" d="M1628.37,1192.87c0,0,130.19,868.79,125.49,875.84s-130.79,49.97-156.64,41.35
				c-18.36-6.12-111.4-447.3-163.79-702.47c-0.21-1.04-0.43-2.08-0.64-3.11c-19.49-94.96,44.03-187.02,139.71-202.54
				L1628.37,1192.87z" class="color727ef4 svgShape"></path>
    </g>
    <g fill="#1e1e1e" class="color000000 svgShape">
      <path d="M1557.88,1982.96l-0.05-5.27c80.98-0.75,178.18-38.6,179.16-38.98l1.93,4.91
				C1737.93,1944,1639.84,1982.2,1557.88,1982.96z" fill="#1e1e1e" class="color000000 svgShape"></path>
    </g>
    <g fill="#1e1e1e" class="color000000 svgShape">
      <path d="M1570.41,2032.68l-0.16-5.27c79.66-2.46,172.24-38.47,173.17-38.83l1.93,4.91
				C1744.41,1993.85,1651,2030.2,1570.41,2032.68z" fill="#1e1e1e" class="color000000 svgShape"></path>
    </g>
    <g fill="#1e1e1e" class="color000000 svgShape">
      <path d="M1750.2,2054.19c-14.77-112.62-82.93-583.39-111.19-772.5l5.21-0.78c28.26,189.13,96.44,659.95,111.21,772.59
				L1750.2,2054.19z" fill="#1e1e1e" class="color000000 svgShape"></path>
    </g>
  </g>
  <g fill="#1e1e1e" class="color000000 svgShape">
    <path fill="#ffffff" d="M1700.06,985.5c0,0,41.58-6.65,56.85-12.97c15.27-6.32,32.68-24.5,42.77-16.26
				c10.09,8.25-11.37,24.43-11.37,24.43s19.11-11.93,27.52-3.15s-9.24,18.88-9.24,18.88s19.42-5.91,21.77,4.92
				c2.35,10.83-13.4,15.24-13.4,15.24s18.1-0.77,18.12,8.43c0.02,9.2-25.77,19.51-25.77,19.51s17.94,0.99,6.51,16.44
				s-77.71,28.78-98.87,30.22L1700.06,985.5z" class="colorffffff svgShape"></path>
    <path d="M1714.96,1093.83c-1.3,0-2.42-0.96-2.61-2.27l-14.9-105.7c-0.2-1.42,0.78-2.74,2.19-2.97
				c0.41-0.07,41.45-6.67,56.26-12.8c4.76-1.97,9.9-5.24,14.86-8.41c10.97-6.99,22.3-14.22,30.58-7.45
				c2.46,2.01,3.72,4.65,3.66,7.65c-0.07,3.67-2.15,7.48-4.76,10.84c6.08-1.59,12.91-1.76,17.48,3.02c2.33,2.44,3.34,5.32,2.9,8.33
				c-0.44,3.03-2.28,5.82-4.44,8.13c3.45-0.11,7.12,0.32,9.99,2.01c2.49,1.46,4.13,3.74,4.75,6.59c1.35,6.19-2.03,10.85-6.32,13.99
				c3.07,0.67,6.21,1.84,8.35,3.88c1.79,1.72,2.74,3.91,2.75,6.35c0.02,7.67-12.29,14.92-20.65,18.96c1.78,0.96,3.44,2.37,4.4,4.42
				c1.79,3.81,0.61,8.57-3.52,14.14c-12.26,16.57-80.45,29.89-100.81,31.29C1715.08,1093.83,1715.02,1093.83,1714.96,1093.83z
				 M1703.03,987.68l14.19,100.69c25.3-2.33,84.68-15.71,94.49-28.97c2.8-3.79,3.86-6.9,2.99-8.76c-1.23-2.61-6.25-3.4-7.52-3.47
				c-1.24-0.07-2.26-0.98-2.46-2.2c-0.2-1.22,0.48-2.41,1.62-2.87c9.73-3.89,24.12-12.01,24.11-17.05c0-1.01-0.36-1.82-1.12-2.55
				c-3.15-3.02-11.37-3.37-14.26-3.25c-1.29,0.07-2.5-0.9-2.71-2.22c-0.21-1.32,0.6-2.59,1.88-2.95
				c0.13-0.04,13.34-3.89,11.55-12.15c-0.31-1.43-1.03-2.44-2.26-3.16c-4.31-2.54-13.14-0.71-16.17,0.21
				c-1.29,0.39-2.65-0.25-3.18-1.48c-0.53-1.23-0.05-2.66,1.1-3.33c2.43-1.4,9.5-6.39,10.14-10.85c0.13-0.88,0.11-2.25-1.49-3.93
				c-5.65-5.91-19.4,0.57-24.22,3.56c-1.2,0.74-2.77,0.42-3.56-0.75c-0.8-1.16-0.54-2.75,0.58-3.59
				c4.98-3.76,12.92-11.66,13.02-16.83c0.03-1.37-0.52-2.47-1.73-3.46c-5.33-4.36-14.6,1.56-24.41,7.82
				c-5.16,3.29-10.49,6.69-15.68,8.83C1744.57,980.49,1712.41,986.11,1703.03,987.68z" fill="#1e1e1e" class="color000000 svgShape"></path>
    <path d="M1763.01 991.44c-1.13 0-2.17-.73-2.52-1.86-.43-1.39.35-2.87 1.74-3.29 5.12-1.57 25.26-8.08 25.27-8.09l1.62 5.02c0 0-20.2 6.53-25.34 8.11C1763.53 991.4 1763.27 991.44 1763.01 991.44zM1768.36 1010.84c-1.35 0-2.49-1.03-2.62-2.39-.14-1.45.93-2.73 2.38-2.87 11.52-1.07 37.23-11.47 37.49-11.58 1.35-.55 2.88.1 3.43 1.45.55 1.35-.1 2.88-1.45 3.43-1.08.44-26.69 10.8-38.98 11.94C1768.52 1010.83 1768.44 1010.84 1768.36 1010.84zM1779.05 1030.51c-.14 0-.27 0-.4-.01-1.45-.04-2.6-1.26-2.55-2.72.04-1.45 1.29-2.65 2.72-2.55.09 0 .19 0 .29 0 7.33 0 27.55-7.95 34.82-11.06 1.34-.58 2.89.05 3.46 1.39.57 1.34-.05 2.89-1.39 3.46C1813.22 1020.22 1788.85 1030.51 1779.05 1030.51zM1785.19 1052.31c-1.37 0-2.53-1.06-2.63-2.45-.1-1.45.99-2.71 2.45-2.81 6.89-.48 21.37-4.99 21.52-5.03 1.39-.44 2.87.34 3.3 1.73.43 1.39-.34 2.87-1.73 3.3-.62.19-15.22 4.73-22.72 5.26C1785.32 1052.31 1785.25 1052.31 1785.19 1052.31z" fill="#1e1e1e" class="color000000 svgShape"></path>
  </g>
  <g fill="#1e1e1e" class="color000000 svgShape">
    <path fill="#ef6351" d="M1455.63,799.49c-44.88,20.9-288.93,238.5-138.67,355.43c119.96,93.35,426.96-59.79,426.96-59.79
			l-10.92-124.51c0,0-343.02,120.48-349.92,84.26c-6.9-36.22,125.69-159.79,125.69-159.79L1455.63,799.49z" class="colorec4e84 svgShape"></path>
  </g>
  <g fill="#1e1e1e" class="color000000 svgShape">
    <path d="M1569.8,1165.83l-1.46-5.07c85.82-24.79,161.04-61.37,172.8-67.2l-10.47-119.34c-31.54,10.99-260.31,89.9-329.51,89.91
			c-7.28,0-12.79-0.87-16.12-2.79c-3.16-1.82-4.22-4.25-4.55-5.97c-7.09-37.22,121.03-157.13,126.49-162.21l3.59,3.86
			c-36.58,34.09-130.34,128.83-124.9,157.37c0.11,0.6,0.44,1.49,2,2.39c28.63,16.49,258.35-58.4,344.46-88.64l3.2-1.13l11.38,129.66
			l-1.59,0.81C1744.31,1097.88,1663.31,1138.81,1569.8,1165.83z" fill="#1e1e1e" class="color000000 svgShape"></path>
  </g>
  <g fill="#1e1e1e" class="color000000 svgShape">
    <polygon points="1905.49 1414.08 1785.64 1283.91 1817.4 1239.71 1821.68 1242.78 1792.43 1283.5 1905.45 1406.26 1926.68 1382.76 1930.59 1386.3" fill="#1e1e1e" class="color000000 svgShape"></polygon>
  </g>
  <g fill="#1e1e1e" class="color000000 svgShape">
    <rect width="49.51" height="5.27" x="1806.55" y="1290.76" transform="rotate(-50.365 1831.192 1293.418)" fill="#1e1e1e" class="color000000 svgShape"></rect>
  </g>
  <g fill="#1e1e1e" class="color000000 svgShape">
    <polygon points="1464.89 1558.09 1463.31 1553.06 1543.16 1527.95 1511.24 1340.88 1430.48 1357.42 1429.42 1352.26 1515.52 1334.62 1549.13 1531.6" fill="#1e1e1e" class="color000000 svgShape"></polygon>
  </g>
  <g fill="#1e1e1e" class="color000000 svgShape">
    <rect width="91.01" height="5.27" x="1433.17" y="1400.02" transform="rotate(-17.118 1478.42 1402.578)" fill="#1e1e1e" class="color000000 svgShape"></rect>
  </g>
  <g fill="#1e1e1e" class="color000000 svgShape">
    <polygon fill="#297373" points="2050.58 612.3 1893.82 655.96 1979.86 933.23 2135.16 876.09" class="color63c634 svgShape"></polygon>
    <polygon points="1893.82 655.96 1881.47 663.89 1965.49 931.5 1979.86 933.23" fill="#1e1e1e" class="color000000 svgShape"></polygon>
    <g fill="#1e1e1e" class="color000000 svgShape">
      <path fill="#ffffff" d="M2084.18,715.65c0,0,51.85-0.87,60.88,46.3c9.03,47.16,4.35,83.99-30.83,99.41
						c-30.02,13.16-69.06,5.55-64.87-11.72c0,0-12.66-0.06-16.54-7.48c-3.88-7.42,5.46-14.42,5.46-14.42s-18.49-0.64-21.33-11.45
						c-2.84-10.81,8.77-16.06,8.77-16.06s-9.91-4.79-10.31-15.04c-0.4-10.25,52.74-16.05,67.98-26.19
						C2095.57,750.91,2084.18,715.65,2084.18,715.65z" class="colorffffff svgShape"></path>
      <path d="M2081.83,870.71c-12.89,0-24.07-3.09-30.09-8.14c-3.51-2.94-5.34-6.59-5.32-10.5c-4.42-0.52-12.61-2.33-15.94-8.69
						c-2.81-5.38-0.45-10.35,2.13-13.66c-6.31-1.15-15.99-4.28-18.22-12.76c-2.05-7.78,2.19-13.54,6.41-16.8
						c-3.35-2.65-7.75-7.51-8.04-14.86c-0.3-7.54,12.81-11.31,36-17.33c13.22-3.43,26.89-6.98,33.16-11.16
						c7.65-5.09,3.9-27.45-0.26-40.35l-1.09-3.39l3.56-0.06c0.59,0.04,54.17-0.35,63.51,48.44c10.63,55.47,0.34,87.99-32.36,102.32
						C2104.26,868.61,2092.46,870.71,2081.83,870.71z M2087.75,718.4c2.75,9.81,8.52,35.2-2.9,42.8
						c-7.01,4.67-21.12,8.33-34.76,11.87c-11.25,2.92-32.2,8.36-32.05,12.03c0.33,8.5,8.49,12.6,8.83,12.77l5.01,2.47l-5.08,2.31
						c-0.38,0.18-9.54,4.5-7.3,12.99c2.28,8.67,18.71,9.48,18.87,9.49l7.42,0.26l-5.93,4.48c-0.08,0.06-7.5,5.75-4.71,11.09
						c3.06,5.86,14.11,6.07,14.22,6.07l3.34,0.01l-0.79,3.24c-0.76,3.12,0.29,5.83,3.21,8.27c9.58,8.03,35.77,10.18,58.04,0.42
						c30.08-13.18,39.39-43.85,29.3-96.5C2135.21,724.52,2099.32,719.14,2087.75,718.4z" fill="#1e1e1e" class="color000000 svgShape"></path>
      <path d="M2054.43 852.41c-3.07 0-5.01-.12-5.24-.14l.35-5.26c.16.01 16.72 1.05 32.18-3.34 15.7-4.45 33.94-13.47 34.12-13.56l2.34 4.72c-.76.38-18.86 9.33-35.02 13.91C2072.11 851.87 2060.82 852.41 2054.43 852.41zM2038.3 830.38l-.03-5.27c.23 0 22.75-.2 37.07-4.87 14.53-4.73 34.88-14.95 35.08-15.05l2.37 4.71c-.85.43-20.9 10.5-35.82 15.36C2061.86 830.17 2039.26 830.37 2038.3 830.38zM2037.82 803.18c-6.66 0-11.84-.29-12.26-.32l.3-5.26c.2.01 20.2 1.13 32.2-1.05 12.1-2.2 43.83-16.72 44.15-16.86l2.2 4.79c-1.33.61-32.65 14.94-45.4 17.26C2052.69 802.89 2044.51 803.18 2037.82 803.18z" fill="#1e1e1e" class="color000000 svgShape"></path>
      <g fill="#1e1e1e" class="color000000 svgShape">
        <path d="M2084.16,761.52l-1.55-5.04c0.11-0.03,10.68-3.39,16.24-11.9c5.08-7.77,0.65-13.48,0.6-13.54l4.12-3.29
					c0.28,0.35,6.82,8.78-0.31,19.71C2096.65,757.61,2084.67,761.37,2084.16,761.52z" fill="#1e1e1e" class="color000000 svgShape"></path>
      </g>
    </g>
  </g>
  <g fill="#1e1e1e" class="color000000 svgShape">
    <circle cx="1779.75" cy="616.12" r="23.5" fill="#d3d3d3" class="colord3d3d3 svgShape"></circle>
  </g>
  <g fill="#1e1e1e" class="color000000 svgShape">
    <circle cx="1850.62" cy="554.43" r="33.79" fill="#dedede" class="colore5e5e5 svgShape"></circle>
  </g>
  <g fill="#1e1e1e" class="color000000 svgShape">
    <ellipse cx="2019.3" cy="408.13" fill="#ececec" rx="173.85" ry="158.13" class="colorecedeb svgShape"></ellipse>
  </g>
  <g fill="#1e1e1e" class="color000000 svgShape">
    <circle cx="1940.79" cy="409.63" r="17.37" fill="#d3d3d3" class="colord3d3d3 svgShape"></circle>
  </g>
  <g fill="#1e1e1e" class="color000000 svgShape">
    <circle cx="2015.39" cy="409.63" r="17.37" fill="#d3d3d3" class="colord3d3d3 svgShape"></circle>
  </g>
  <g fill="#1e1e1e" class="color000000 svgShape">
    <circle cx="2089.99" cy="409.63" r="17.37" fill="#d3d3d3" class="colord3d3d3 svgShape"></circle>
  </g>
</svg>
